HIERARCHY
ROOT hip
{
  OFFSET 0 0 0
  CHANNELS 6 Xposition Yposition Zposition Zrotation Yrotation Xrotation
  JOINT abdomen
  {
    OFFSET 0 20.6881 -0.73152
    CHANNELS 3 Zrotation Xrotation Yrotation
    JOINT chest
    {
      OFFSET 0 11.7043 -0.48768
      CHANNELS 3 Zrotation Xrotation Yrotation
      JOINT neck
      {
        OFFSET 0 22.1894 -2.19456
        CHANNELS 3 Zrotation Xrotation Yrotation
        JOINT head
        {
          OFFSET -0.24384 7.07133 1.2192
          CHANNELS 3 Zrotation Xrotation Yrotation
          JOINT leftEye
          {
            OFFSET 4.14528 8.04674 8.04672
            CHANNELS 3 Zrotation Xrotation Yrotation
            End Site
            {
              OFFSET 1 0 0
            }
          }
          JOINT rightEye
          {
            OFFSET -3.6576 8.04674 8.04672
            CHANNELS 3 Zrotation Xrotation Yrotation
            End Site
            {
              OFFSET 1 0 0
            }
          }
        }
      }
      JOINT rCollar
      {
        OFFSET -2.68224 19.2634 -4.8768
        CHANNELS 3 Zrotation Xrotation Yrotation
        JOINT rShldr
        {
          OFFSET -8.77824 -1.95073 1.46304
          CHANNELS 3 Zrotation Xrotation Yrotation
          JOINT rForeArm
          {
            OFFSET -28.1742 -1.7115 0.48768
            CHANNELS 3 Zrotation Xrotation Yrotation
            JOINT rHand
            {
              OFFSET -22.5879 0.773209 7.07136
              CHANNELS 3 Zrotation Xrotation Yrotation
              JOINT rThumb1
              {
                OFFSET -1.2192 -0.487915 3.41376
                CHANNELS 3 Zrotation Xrotation Yrotation
                JOINT rThumb2
                {
                  OFFSET -3.37035 -0.52449 3.41376
                  CHANNELS 3 Zrotation Xrotation Yrotation
                  End Site
                  {
                    OFFSET -1.78271 -1.18214 1.43049
                  }
                }
              }
              JOINT rIndex1
              {
                OFFSET -7.75947 0.938293 5.60832
                CHANNELS 3 Zrotation Xrotation Yrotation
                JOINT rIndex2
                {
                  OFFSET -2.54057 -0.884171 1.56538
                  CHANNELS 3 Zrotation Xrotation Yrotation
                  End Site
                  {
                    OFFSET -1.62519 -0.234802 1.16502
                  }
                }
              }
              JOINT rMid1
              {
                OFFSET -8.24714 1.18213 3.41376
                CHANNELS 3 Zrotation Xrotation Yrotation
                JOINT rMid2
                {
                  OFFSET -3.10165 -0.590103 1.0647
                  CHANNELS 3 Zrotation Xrotation Yrotation
                  End Site
                  {
                    OFFSET -2.48547 -0.328903 0.83742
                  }
                }
              }
              JOINT rRing1
              {
                OFFSET -8.82822 0.546677 1.51678
                CHANNELS 3 Zrotation Xrotation Yrotation
                JOINT rRing2
                {
                  OFFSET -2.60934 -0.819778 -0.0198488
                  CHANNELS 3 Zrotation Xrotation Yrotation
                  End Site
                  {
                    OFFSET -2.33842 -0.294052 0.168128
                  }
                }
              }
              JOINT rPinky1
              {
                OFFSET -8.27202 -0.0477905 -0.4584
                CHANNELS 3 Zrotation Xrotation Yrotation
                JOINT rPinky2
                {
                  OFFSET -1.82734 -0.647385 -0.700984
                  CHANNELS 3 Zrotation Xrotation Yrotation
                  End Site
                  {
                    OFFSET -1.69225 -0.51767 -0.607171
                  }
                }
              }
            }
          }
        }
      }
      JOINT lCollar
      {
        OFFSET 2.68224 19.2634 -4.8768
        CHANNELS 3 Zrotation Xrotation Yrotation
        JOINT lShldr
        {
          OFFSET 8.77824 -1.95073 1.46304
          CHANNELS 3 Zrotation Xrotation Yrotation
          JOINT lForeArm
          {
            OFFSET 28.1742 -1.7115 0.48768
            CHANNELS 3 Zrotation Xrotation Yrotation
            JOINT lHand
            {
              OFFSET 22.5879 0.773209 7.07136
              CHANNELS 3 Zrotation Xrotation Yrotation
              JOINT lThumb1
              {
                OFFSET 1.2192 -0.487915 3.41376
                CHANNELS 3 Zrotation Xrotation Yrotation
                JOINT lThumb2
                {
                  OFFSET 3.37035 -0.52449 3.41376
                  CHANNELS 3 Zrotation Xrotation Yrotation
                  End Site
                  {
                    OFFSET 1.78271 -1.18214 1.43049
                  }
                }
              }
              JOINT lIndex1
              {
                OFFSET 7.75947 0.938293 5.60832
                CHANNELS 3 Zrotation Xrotation Yrotation
                JOINT lIndex2
                {
                  OFFSET 2.54057 -0.884171 1.56538
                  CHANNELS 3 Zrotation Xrotation Yrotation
                  End Site
                  {
                    OFFSET 1.62519 -0.234802 1.16502
                  }
                }
              }
              JOINT lMid1
              {
                OFFSET 8.24714 1.18213 3.41376
                CHANNELS 3 Zrotation Xrotation Yrotation
                JOINT lMid2
                {
                  OFFSET 3.10165 -0.590103 1.0647
                  CHANNELS 3 Zrotation Xrotation Yrotation
                  End Site
                  {
                    OFFSET 2.48547 -0.328903 0.83742
                  }
                }
              }
              JOINT lRing1
              {
                OFFSET 8.82822 0.546677 1.51678
                CHANNELS 3 Zrotation Xrotation Yrotation
                JOINT lRing2
                {
                  OFFSET 2.60934 -0.819778 -0.0198488
                  CHANNELS 3 Zrotation Xrotation Yrotation
                  End Site
                  {
                    OFFSET 2.33842 -0.294052 0.168128
                  }
                }
              }
              JOINT lPinky1
              {
                OFFSET 8.27202 -0.0477905 -0.4584
                CHANNELS 3 Zrotation Xrotation Yrotation
                JOINT lPinky2
                {
                  OFFSET 1.82734 -0.647385 -0.700984
                  CHANNELS 3 Zrotation Xrotation Yrotation
                  End Site
                  {
                    OFFSET 1.69225 -0.51767 -0.607171
                  }
                }
              }
            }
          }
        }
      }
    }
  }
  JOINT rButtock
  {
    OFFSET -8.77824 4.35084 1.2192
    CHANNELS 3 Zrotation Xrotation Yrotation
    JOINT rThigh
    {
      OFFSET 0 -1.70687 -2.19456
      CHANNELS 3 Zrotation Xrotation Yrotation
      JOINT rShin
      {
        OFFSET 0 -36.8199 0.73152
        CHANNELS 3 Zrotation Xrotation Yrotation
        JOINT rFoot
        {
          OFFSET 0.73152 -45.1104 -5.12064
          CHANNELS 3 Zrotation Xrotation Yrotation
          End Site
          {
            OFFSET -1.1221 -3.69964 12.103
          }
        }
      }
    }
  }
  JOINT lButtock
  {
    OFFSET 8.77824 4.35084 1.2192
    CHANNELS 3 Zrotation Xrotation Yrotation
    JOINT lThigh
    {
      OFFSET 0 -1.70687 -2.19456
      CHANNELS 3 Zrotation Xrotation Yrotation
      JOINT lShin
      {
        OFFSET 0 -36.8199 0.73152
        CHANNELS 3 Zrotation Xrotation Yrotation
        JOINT lFoot
        {
          OFFSET -0.73152 -45.1104 -5.12064
          CHANNELS 3 Zrotation Xrotation Yrotation
          End Site
          {
            OFFSET 1.1221 -3.69964 12.103
          }
        }
      }
    }
  }
}
MOTION
Frames:	9
Frame Time:	0.00833333
-5.70665 82.9557 -31.6309 24.8939 25.0885 85.9463 16.6409 30.7885 8.93337 7.09231 3.57459 3.65938 1.83117 6.65367 -12.9265 -13.0498 -43.2216 -34.6436 -0.0 0.0 0.0 -0.0 0.0 0.0 5.69044e-14 -8.44535e-14 2.16923e-13 -11.1086 -36.0831 41.841 -9.35044 -3.75652 16.5881 -0.816069 24.8242 3.72558 -5.00154e-10 -1.2201e-09 1.64818e-09 -8.23883e-10 -2.10197e-09 2.85636e-09 -5.00154e-10 -1.2201e-09 1.64817e-09 7.73091 5.47488 0.417314 -5.00156e-10 -1.2201e-09 1.64817e-09 2.90554 0.965183 0.102902 -5.00151e-10 -1.2201e-09 1.64817e-09 10.2786 0.731801 0.0259123 -5.00158e-10 -1.2201e-09 1.64818e-09 2.22167 -0.733487 -0.20892 5.69352e-14 -8.4414e-14 2.16849e-13 -45.3241 59.2036 -45.7048 28.2615 -38.6964 -81.6165 0.338059 -16.3161 2.35781 1.12187e-09 1.57454e-09 -2.76873e-09 1.96921e-09 2.71697e-09 -4.77198e-09 1.12187e-09 1.57454e-09 -2.76873e-09 -7.73091 5.47488 -0.417314 1.12187e-09 1.57454e-09 -2.76873e-09 -2.90554 0.965183 -0.102902 1.12186e-09 1.57454e-09 -2.76873e-09 -10.2786 0.731801 -0.0259123 1.12189e-09 1.57454e-09 -2.76874e-09 -2.22167 -0.733487 0.20892 -2.03217e-16 0.0 -3.88251e-19 -148.717 -63.1853 -139.566 -0.35967 41.7953 0.848738 -1.31446 1.60332 -15.3451 2.03217e-16 0.0 3.88251e-19 5.84821 -64.4344 -3.10104 0.125819 33.1253 -1.03432 1.92673 14.115 -9.01891
-5.71731 83.0686 -31.6032 24.6272 25.0684 85.7978 16.5998 30.7947 8.99493 7.06931 3.57448 3.67017 1.89018 6.67842 -12.9289 -13.0108 -43.1875 -34.6272 -0.0 0.0 0.0 -0.0 0.0 0.0 8.21408e-15 -2.98328e-14 1.54881e-13 -13.1239 -33.878 40.3901 -9.4892 -3.83763 16.8457 -0.708596 23.313 3.46893 9.10904e-10 -1.58978e-10 7.68528e-10 1.59523e-09 -2.60926e-10 1.31182e-09 9.10908e-10 -1.58977e-10 7.68517e-10 7.73091 5.47488 0.417314 9.10905e-10 -1.58976e-10 7.68522e-10 2.90554 0.965183 0.102902 9.10908e-10 -1.58974e-10 7.68524e-10 10.2786 0.731801 0.0259123 9.10901e-10 -1.58975e-10 7.68534e-10 2.22167 -0.733487 -0.20892 8.19224e-15 -2.98025e-14 1.54745e-13 -45.2704 59.1157 -45.6945 28.2565 -38.7379 -81.6896 0.342758 -16.4254 2.37451 7.43054e-10 6.57844e-10 -8.69306e-10 1.28989e-09 1.13779e-09 -1.49106e-09 7.43049e-10 6.57845e-10 -8.69304e-10 -7.73091 5.47488 -0.417314 7.43054e-10 6.57844e-10 -8.69308e-10 -2.90554 0.965183 -0.102902 7.43044e-10 6.57844e-10 -8.69308e-10 -10.2786 0.731801 -0.0259123 7.43069e-10 6.57841e-10 -8.69315e-10 -2.22167 -0.733487 0.20892 -2.03217e-16 0.0 -3.88251e-19 -148.55 -63.5928 -139.26 -0.351154 41.362 0.832882 -1.28474 1.71715 -15.4685 2.03217e-16 0.0 3.88251e-19 6.02045 -64.1484 -2.98758 0.128176 33.2603 -1.03694 1.97097 14.2401 -9.15189
-5.71979 83.1859 -31.5748 24.5363 25.1049 85.6552 16.5546 30.8039 9.04269 7.03926 3.56936 3.67785 1.9432 6.67853 -12.9308 -12.9521 -43.0981 -34.5869 -0.0 0.0 0.0 -0.0 0.0 0.0 -1.96313e-14 1.6639e-14 1.00405e-13 -15.0786 -31.4411 39.0392 -9.64171 -3.92703 17.1304 -0.602666 21.5875 3.18566 2.15192e-09 6.69706e-10 1.21333e-11 3.7225e-09 1.17742e-09 -1.71269e-11 2.15193e-09 6.69706e-10 1.21233e-11 7.73091 5.47488 0.417314 2.15192e-09 6.69706e-10 1.21269e-11 2.90554 0.965183 0.102902 2.15193e-09 6.69708e-10 1.21306e-11 10.2786 0.731801 0.0259123 2.15192e-09 6.69707e-10 1.21412e-11 2.22167 -0.733487 -0.20892 -1.97023e-14 1.66575e-14 1.00199e-13 -45.2547 59.0137 -45.646 28.2537 -38.7613 -81.7305 0.347089 -16.5254 2.3898 3.93869e-10 -7.27748e-11 1.04904e-09 6.62346e-10 -1.19916e-10 1.8223e-09 3.93864e-10 -7.27744e-11 1.04904e-09 -7.73091 5.47488 -0.417314 3.9387e-10 -7.27749e-11 1.04904e-09 -2.90554 0.965183 -0.102902 3.93861e-10 -7.27748e-11 1.04904e-09 -10.2786 0.731801 -0.0259123 3.93885e-10 -7.27774e-11 1.04903e-09 -2.22167 -0.733487 0.20892 -2.03217e-16 0.0 -3.88251e-19 -148.337 -64.0314 -138.899 -0.342865 40.9341 0.817675 -1.26198 1.80185 -15.5838 2.03217e-16 0.0 3.88251e-19 6.1643 -63.8493 -2.89113 0.130579 33.3993 -1.03963 2.01733 14.3552 -9.30139
-5.70858 83.295 -31.5579 24.3809 25.0826 85.4625 16.5064 30.8084 9.0497 6.99678 3.54571 3.6762 1.97646 6.65746 -12.9286 -12.823 -42.9776 -34.4961 -0.0 0.0 0.0 -0.0 0.0 0.0 -2.38098e-14 2.54398e-14 7.2457e-14 -16.4839 -29.1418 38.0989 -9.76621 -4.00046 17.3637 -0.5274 20.1875 2.96203 2.50432e-09 1.00319e-09 -3.64899e-10 4.32216e-09 1.75501e-09 -6.75803e-10 2.50433e-09 1.00318e-09 -3.64908e-10 7.73091 5.47488 0.417314 2.50433e-09 1.00318e-09 -3.64905e-10 2.90554 0.965183 0.102902 2.50433e-09 1.00319e-09 -3.649e-10 10.2786 0.731801 0.0259123 2.50432e-09 1.00319e-09 -3.64889e-10 2.22167 -0.733487 -0.20892 -2.39002e-14 2.54491e-14 7.22085e-14 -45.3424 58.8883 -45.4976 28.2552 -38.7511 -81.7117 0.351012 -16.6151 2.40354 2.21199e-10 -3.79982e-10 1.83377e-09 3.54468e-10 -6.49078e-10 3.17744e-09 2.21194e-10 -3.79982e-10 1.83378e-09 -7.73091 5.47488 -0.417314 2.212e-10 -3.79983e-10 1.83377e-09 -2.90554 0.965183 -0.102902 2.21192e-10 -3.79983e-10 1.83377e-09 -10.2786 0.731801 -0.0259123 2.21214e-10 -3.79984e-10 1.83376e-09 -2.22167 -0.733487 0.20892 -2.03217e-16 0.0 -3.88251e-19 -148.057 -64.4713 -138.493 -0.335011 40.518 0.802887 -1.24065 1.87277 -15.6657 2.03217e-16 0.0 3.88251e-19 6.25954 -63.5461 -2.8116 0.132951 33.534 -1.042 2.06395 14.4604 -9.4587
-5.59428 83.3917 -31.554 24.5407 25.0138 85.366 16.4587 30.808 9.00047 6.93409 3.49428 3.66221 1.98633 6.60682 -12.9244 -12.6005 -42.8096 -34.3461 -0.0 0.0 0.0 -0.0 0.0 0.0 1.62916e-14 -3.57827e-14 9.4585e-14 -17.2933 -27.0753 37.5965 -9.85413 -4.05294 17.5284 -0.476447 19.205 2.80674 1.33343e-09 4.92447e-10 -1.09766e-10 2.30249e-09 8.65249e-10 -2.17234e-10 1.33343e-09 4.92447e-10 -1.09776e-10 7.73091 5.47488 0.417314 1.33343e-09 4.92447e-10 -1.09772e-10 2.90554 0.965183 0.102902 1.33343e-09 4.92447e-10 -1.09766e-10 10.2786 0.731801 0.0259123 1.33342e-09 4.92448e-10 -1.09755e-10 2.22167 -0.733487 -0.20892 1.62325e-14 -3.57797e-14 9.43315e-14 -45.5697 58.7295 -45.2156 28.2619 -38.6957 -81.6139 0.354597 -16.6965 2.41602 3.46545e-10 5.24134e-11 7.3396e-10 5.86031e-10 9.4525e-11 1.27729e-09 3.4654e-10 5.24146e-11 7.33966e-10 -7.73091 5.47488 -0.417314 3.46547e-10 5.24125e-11 7.33955e-10 -2.90554 0.965183 -0.102902 3.46538e-10 5.24129e-11 7.33956e-10 -10.2786 0.731801 -0.0259123 3.46558e-10 5.24119e-11 7.33951e-10 -2.22167 -0.733487 0.20892 -2.03217e-16 0.0 -3.88251e-19 -147.697 -64.9064 -138.033 -0.327525 40.1121 0.788552 -1.22362 1.91841 -15.7078 2.03217e-16 0.0 3.88251e-19 6.29248 -63.2417 -2.759 0.135277 33.6638 -1.04397 2.11156 14.5497 -9.63275
-5.58779 83.4825 -31.5389 24.3673 24.9947 85.1765 16.4098 30.8064 8.91213 6.85612 3.42417 3.63965 1.98017 6.52788 -12.9193 -12.3164 -42.5885 -34.1529 -0.0 0.0 0.0 -0.0 0.0 0.0 9.25476e-14 -1.43123e-13 1.50511e-13 -17.7998 -25.0753 37.34 -9.92716 -4.09704 17.6651 -0.433608 18.3696 2.67539 -8.29842e-10 -6.29389e-10 5.79439e-10 -1.42336e-09 -1.08609e-09 1.00751e-09 -8.29836e-10 -6.29387e-10 5.79428e-10 7.73091 5.47488 0.417314 -8.2984e-10 -6.29387e-10 5.79433e-10 2.90554 0.965183 0.102902 -8.29835e-10 -6.29386e-10 5.7944e-10 10.2786 0.731801 0.0259123 -8.29846e-10 -6.29385e-10 5.7945e-10 2.22167 -0.733487 -0.20892 9.25519e-14 -1.43126e-13 1.50272e-13 -45.8923 58.5436 -44.8418 28.2722 -38.6056 -81.4566 0.357813 -16.7695 2.42721 6.64128e-10 1.01353e-09 -1.48786e-09 1.16471e-09 1.74857e-09 -2.56105e-09 6.64122e-10 1.01354e-09 -1.48785e-09 -7.73091 5.47488 -0.417314 6.64129e-10 1.01353e-09 -1.48786e-09 -2.90554 0.965183 -0.102902 6.64121e-10 1.01353e-09 -1.48786e-09 -10.2786 0.731801 -0.0259123 6.64137e-10 1.01353e-09 -1.48786e-09 -2.22167 -0.733487 0.20892 -2.03217e-16 0.0 -3.88251e-19 -147.267 -65.3511 -137.513 -0.320295 39.714 0.774725 -1.21269 1.93585 -15.7234 2.03217e-16 0.0 3.88251e-19 6.27794 -62.9314 -2.7289 0.137595 33.7925 -1.04575 2.16071 14.6251 -9.8244
-5.56768 83.5766 -31.5153 24.2886 25.0164 84.8935 16.3532 30.8007 8.80671 6.77658 3.34934 3.6125 1.96064 6.43853 -12.9074 -12.0016 -42.3537 -33.9272 -0.0 0.0 0.0 -0.0 0.0 0.0 1.64673e-13 -2.41718e-13 1.99464e-13 -18.0794 -23.1406 37.2489 -9.98963 -4.13505 17.782 -0.399225 17.6793 2.56752 -2.95564e-09 -1.75188e-09 1.28248e-09 -5.08391e-09 -3.03848e-09 2.25604e-09 -2.95564e-09 -1.75188e-09 1.28247e-09 7.73091 5.47488 0.417314 -2.95564e-09 -1.75188e-09 1.28248e-09 2.90554 0.965183 0.102902 -2.95564e-09 -1.75188e-09 1.28248e-09 10.2786 0.731801 0.0259123 -2.95565e-09 -1.75188e-09 1.28249e-09 2.22167 -0.733487 -0.20892 1.6474e-13 -2.41725e-13 1.99247e-13 -46.2543 58.3459 -44.4275 28.2839 -38.498 -81.2699 0.360474 -16.8296 2.43644 9.79899e-10 1.9501e-09 -3.71397e-09 1.74027e-09 3.3603e-09 -6.407e-09 9.79894e-10 1.95011e-09 -3.71396e-09 -7.73091 5.47488 -0.417314 9.799e-10 1.9501e-09 -3.71398e-09 -2.90554 0.965183 -0.102902 9.79892e-10 1.9501e-09 -3.71397e-09 -10.2786 0.731801 -0.0259123 9.79905e-10 1.9501e-09 -3.71398e-09 -2.22167 -0.733487 0.20892 -2.03217e-16 0.0 -3.88251e-19 -146.771 -65.8065 -136.945 -0.31347 39.3291 0.761211 -1.20062 1.95335 -15.7168 2.03217e-16 0.0 3.88251e-19 6.23779 -62.6118 -2.70012 0.139895 33.9189 -1.04734 2.20915 14.6983 -10.0129
-5.55024 83.6534 -31.475 23.9485 25.0537 84.4247 16.2827 30.7882 8.70625 6.70923 3.28374 3.58472 1.93042 6.35664 -12.8833 -11.6858 -42.1449 -33.6786 -0.0 0.0 0.0 -0.0 0.0 0.0 1.92382e-13 -2.76704e-13 2.00673e-13 -18.196 -21.2636 37.2505 -10.0458 -4.16924 17.8872 -0.374048 17.1318 2.4829 -4.01414e-09 -2.2646e-09 1.57912e-09 -6.90766e-09 -3.93139e-09 2.78594e-09 -4.01414e-09 -2.2646e-09 1.57911e-09 7.73091 5.47488 0.417314 -4.01414e-09 -2.2646e-09 1.57912e-09 2.90554 0.965183 0.102902 -4.01413e-09 -2.2646e-09 1.57913e-09 10.2786 0.731801 0.0259123 -4.01414e-09 -2.26459e-09 1.57914e-09 2.22167 -0.733487 -0.20892 1.92478e-13 -2.76712e-13 2.00474e-13 -46.6016 58.1524 -44.0219 28.2952 -38.3907 -81.0835 0.362389 -16.8725 2.44303 1.09981e-09 2.30885e-09 -4.82669e-09 1.96246e-09 3.97696e-09 -8.32999e-09 1.09981e-09 2.30886e-09 -4.82667e-09 -7.73091 5.47488 -0.417314 1.09981e-09 2.30885e-09 -4.82669e-09 -2.90554 0.965183 -0.102902 1.09981e-09 2.30885e-09 -4.82669e-09 -10.2786 0.731801 -0.0259123 1.09982e-09 2.30885e-09 -4.82669e-09 -2.22167 -0.733487 0.20892 -2.03217e-16 0.0 -3.88251e-19 -146.218 -66.274 -136.342 -0.307199 38.9626 0.74781 -1.18018 1.99913 -15.6924 2.03217e-16 0.0 3.88251e-19 6.19287 -62.2797 -2.65237 0.142167 34.0415 -1.04875 2.25469 14.7812 -10.1774
-5.48823 83.7264 -31.4455 23.6722 24.9766 83.9986 16.1786 30.7632 8.61547 6.66702 3.2436 3.55486 1.89253 6.28938 -12.8402 -11.3694 -41.9788 -33.3965 -0.0 0.0 0.0 -0.0 0.0 0.0 1.49438e-13 -2.07478e-13 1.27879e-13 -18.1552 -19.4621 37.3391 -10.0902 -4.19627 17.9709 -0.361835 16.8327 2.43729 -3.4643e-09 -1.83421e-09 1.25633e-09 -5.96397e-09 -3.18594e-09 2.22077e-09 -3.4643e-09 -1.83421e-09 1.25632e-09 7.73091 5.47488 0.417314 -3.4643e-09 -1.8342e-09 1.25633e-09 2.90554 0.965183 0.102902 -3.46429e-09 -1.8342e-09 1.25633e-09 10.2786 0.731801 0.0259123 -3.46431e-09 -1.8342e-09 1.25635e-09 2.22167 -0.733487 -0.20892 1.49509e-13 -2.07485e-13 1.27691e-13 -46.9029 57.9615 -43.655 28.3049 -38.2924 -80.9139 0.363325 -16.8934 2.44623 9.36674e-10 1.80528e-09 -4.26636e-09 1.67311e-09 3.10905e-09 -7.36341e-09 9.3667e-10 1.80528e-09 -4.26634e-09 -7.73091 5.47488 -0.417314 9.36674e-10 1.80528e-09 -4.26637e-09 -2.90554 0.965183 -0.102902 9.36667e-10 1.80528e-09 -4.26636e-09 -10.2786 0.731801 -0.0259123 9.36676e-10 1.80528e-09 -4.26637e-09 -2.22167 -0.733487 0.20892 -2.03217e-16 0.0 -3.88251e-19 -145.606 -66.7455 -135.695 -0.301696 38.6254 0.734634 -1.15068 2.07735 -15.6534 2.03217e-16 0.0 3.88251e-19 6.11925 -61.9304 -2.59107 0.144383 34.1588 -1.05008 2.29997 14.8891 -10.3194
